<svg t="1608864977809" class="download-icon" viewBox="0 0 1024 1024" version="1.1" xmlns="http://www.w3.org/2000/svg" p-id="2506" width="200" height="200">
    <g id="download-icon" stroke="none" stroke-width="1" fill="none" fill-rule="evenodd" opacity="0.5">
        <g  fill="#9DA5AB">
            <path d="M1022.56 949.6l-1.12-0.48c-2.4-12.32-8.64-23.84-17.92-32.8a65.296 65.296 0 0 0-45.12-17.92H64.48C28.96 898.4 0 926.4 0 960.8s28.96 62.4 64.48 62.4h895.36c35.36 0 64.16-27.84 64.16-62.08l-1.44-11.52zM136.48 494.88l329.92 329.92c1.76 2.08 3.52 3.2 5.44 4.64 1.44 1.12 2.72 2.24 4.32 3.36 1.44 0.96 2.88 1.76 5.12 2.88 2.56 1.28 4.8 2.56 10.72 4.48 2.88 0.96 5.6 1.76 9.44 2.24 4.64 0.96 8.96 1.44 13.28 1.44 17.12 0 33.76-7.04 45.76-19.2l323.84-328.96a64.448 64.448 0 0 0 16.64-62.4 64.8 64.8 0 0 0-45.76-45.76c-22.24-5.92-46.24 0.48-62.4 16.8L576.32 620.8V65.28c0-35.52-28.96-64.48-64.48-64.48s-64.48 28.96-64.48 64.48v556.64L226.88 406.24a64.112 64.112 0 0 0-115.04 25.6c-4.8 25.28 5.92 50.88 24.64 63.04z" fill="#9DA5AB" p-id="2507"></path>
        </g>
    </g>
</svg>